<svg xmlns="http://www.w3.org/2000/svg" width="30.132" height="30.13" viewBox="0 0 30.132 30.13">
  <g id="contact" transform="translate(0 0.13)">
    <rect id="Area" width="30" height="30" fill="#fcfcfc" opacity="0"/>
    <g id="Icon" transform="translate(1.29 2.499)">
      <path id="Path" d="M18.813,6.25a6.249,6.249,0,0,1,4.937,4.938M18.813,1.25a11.249,11.249,0,0,1,9.937,9.925M27.5,21.15V24.9a2.5,2.5,0,0,1-2.725,2.5,24.739,24.739,0,0,1-10.787-3.837,24.376,24.376,0,0,1-7.5-7.5A24.729,24.729,0,0,1,2.65,5.225,2.5,2.5,0,0,1,5.137,2.5H8.888a2.5,2.5,0,0,1,2.5,2.15,16.007,16.007,0,0,0,.875,3.513A2.5,2.5,0,0,1,11.7,10.8l-1.587,1.587a20,20,0,0,0,7.5,7.5L19.2,18.3a2.5,2.5,0,0,1,2.638-.563,15.984,15.984,0,0,0,3.512.875A2.5,2.5,0,0,1,27.5,21.15Z" transform="translate(-1.29 -2.499)" fill="none" stroke="#3d3d3d" stroke-linecap="round" stroke-linejoin="round" stroke-width="2.5"/>
    </g>
  </g>
</svg>
